# 3ds Max Wavefront OBJ Exporter v0.97b - (c)2007 guruware
# File Created: 18.08.2016 19:15:23

mtllib Bandages.mtl

#
# object Bandages
#

v  12.2734 0.2389 6.9375
v  12.4688 0.2350 6.6875
v  12.4688 12.8594 6.6875
v  12.2734 12.8516 6.9375
v  12.2734 12.8516 -6.9375
v  12.4688 12.8594 -6.7539
v  12.4688 0.2350 -6.7539
v  12.2734 0.2389 -6.9375
v  -12.2734 0.2389 -6.9375
v  -12.2734 12.8516 -6.9375
v  -12.4688 12.8672 -6.7539
v  -12.4688 0.2374 -6.7539
v  12.2734 0.0342 -6.7539
v  12.2734 0.0342 6.6914
v  -12.2734 0.0342 6.6914
v  -12.2734 0.0342 -6.7539
v  -12.2734 0.2389 6.9375
v  -12.4688 0.2374 6.6914
v  -12.4688 12.8672 6.6914
v  -12.2734 12.8516 6.9375
v  12.2734 13.0469 -6.7539
v  -12.2734 13.0469 -6.7539
v  -12.2734 13.0469 6.6914
v  12.2734 13.0469 6.6914
# 24 vertices

vn 0.5251 -0.2153 0.8234
vn 0.9185 -0.2504 0.3060
vn 0.8970 0.1937 0.3974
vn 0.3979 0.2979 0.8677
vn 0.4426 0.3470 -0.8268
vn 0.8900 0.2636 -0.3721
vn 0.8339 -0.2848 -0.4728
vn 0.3259 -0.3453 -0.8801
vn -0.3473 -0.2395 -0.9066
vn -0.3188 0.3580 -0.8776
vn -0.8518 0.2002 -0.4841
vn -0.8942 -0.2514 -0.3703
vn 0.1581 -0.8613 -0.4829
vn 0.3535 -0.8846 0.3041
vn -0.4753 -0.8682 0.1428
vn -0.3465 -0.8652 -0.3623
vn 0.7168 -0.6972 -0.0000
vn -0.3723 -0.4087 0.8333
vn 0.0000 -0.7688 0.6395
vn -0.9177 -0.2496 0.3091
vn -0.9111 0.2677 0.3133
vn -0.3643 0.4220 0.8302
vn 0.4420 0.8806 -0.1710
vn 0.0000 0.6849 -0.7286
vn -0.3229 0.8767 -0.3565
vn -0.3308 0.8959 0.2967
vn 0.3407 0.8922 0.2964
# 27 vertex normals

vt 0.3086 0.3315 0.3315
vt 0.3062 0.3291 0.3291
vt 0.3062 0.6250 0.6250
vt 0.3086 0.6226 0.6226
vt 0.3083 0.6226 0.6226
vt 0.3083 0.3315 0.3315
vt 0.9941 0.3315 0.3315
vt 0.9941 0.6226 0.6226
vt 0.9966 0.6226 0.6226
vt 0.9966 0.3315 0.3315
vt 0.9941 0.0195 0.0195
vt 0.9941 0.3076 0.3076
vt 0.3086 0.3076 0.3076
vt 0.3086 0.0195 0.0195
vt 0.3062 0.0195 0.0195
vt 0.3086 0.0171 0.0171
vt 0.9941 0.0171 0.0171
vt 0.9966 0.0171 0.0171
vt 0.9966 0.3101 0.3101
vt 0.9941 0.3101 0.3101
vt 0.3086 0.3101 0.3101
vt 0.3062 0.3076 0.3076
vt 0.6519 0.9747 0.9747
vt 0.6519 0.6333 0.6333
vt 0.9961 0.6333 0.6333
vt 0.9961 0.9747 0.9747
vt 0.6470 0.6318 0.6318
vt 0.6470 0.9741 0.9741
vt 0.3044 0.9741 0.9741
vt 0.3044 0.6318 0.6318
vt 0.3062 0.3315 0.3315
vt 0.3062 0.6226 0.6226
vt 0.0082 0.6926 0.6926
vt 0.0106 0.6926 0.6926
vt 0.0082 0.6948 0.6948
vt 0.0082 0.0117 0.0117
vt 0.0106 0.0117 0.0117
vt 0.0106 0.0093 0.0093
vt 0.2949 0.0093 0.0093
vt 0.2949 0.0117 0.0117
vt 0.2974 0.0117 0.0117
vt 0.2974 0.6926 0.6926
vt 0.2949 0.6926 0.6926
vt 0.2974 0.6948 0.6948
# 44 texture coords

g Bandages
usemtl _BandagesBio_bandagebox_new
s 1
f 1/1/1 2/2/2 3/3/3 
s 2
f 3/3/3 4/4/4 1/1/1 
s 3
f 5/5/5 6/3/6 7/2/7 
s 4
f 7/2/7 8/6/8 5/5/5 
s 5
f 5/5/5 8/6/8 9/7/9 
s 6
f 9/7/9 10/8/10 5/5/5 
s 7
f 11/9/11 10/8/10 9/7/9 
s 8
f 9/7/9 12/10/12 11/9/11 
s 9
f 13/11/13 14/12/14 15/13/15 
s 10
f 15/13/15 16/14/16 13/11/13 
s 11
f 12/15/12 16/14/16 15/13/15 
s 12
f 16/14/16 12/15/12 9/16/9 
s 13
f 16/14/16 9/16/9 8/17/8 
s 14
f 8/17/8 13/11/13 16/14/16 
s 15
f 13/11/13 8/17/8 7/18/7 
s 16
f 13/11/17 7/18/7 2/19/2 
s 17
f 2/19/2 14/12/14 13/11/13 
s 18
f 1/20/1 14/12/14 2/19/2 
s 19
f 14/12/14 1/20/1 17/21/18 
s 20
f 17/21/18 15/13/19 14/12/14 
s 21
f 17/21/18 18/22/20 15/13/15 
s 22
f 15/13/15 18/22/20 12/15/12 
s 23
f 11/23/11 12/24/12 18/25/20 
s 24
f 18/25/20 19/26/21 11/23/11 
s 25
f 7/27/7 6/28/6 3/29/3 
s 26
f 3/29/3 2/30/2 7/27/7 
s 27
f 1/7/1 4/8/4 20/4/22 
s 28
f 20/4/22 17/1/18 1/7/1 
s 29
f 18/31/20 17/1/18 20/4/22 
s 30
f 20/4/22 19/32/21 18/31/20 
s 31
f 5/33/5 21/34/23 6/35/6 
s 32
f 21/34/24 5/33/5 10/36/10 
s 33
f 10/36/10 22/37/25 21/34/23 
s 34
f 10/36/10 11/38/11 22/37/25 
s 35
f 22/37/25 11/38/11 19/39/21 
s 36
f 19/39/21 23/40/26 22/37/25 
s 37
f 23/40/26 19/39/21 20/41/22 
s 38
f 23/40/26 20/41/22 4/42/4 
s 39
f 4/42/4 24/43/27 23/40/26 
s 40
f 24/43/27 4/42/4 3/44/3 
s 41
f 24/43/27 3/44/3 6/35/6 
s 42
f 6/35/6 21/34/23 24/43/27 
s 43
f 24/43/27 21/34/23 22/37/25 
s 44
f 22/37/25 23/40/26 24/43/27 
# 44 faces

